/* XPM */
static char * TLazSerial_xpm[] = {
"23 23 6 1",
" 	c None",
".	c #0D0202",
"+	c #000000",
"@	c #41E16E",
"#	c #FFFFFF",
"$	c #3F3F3F",
"                       ",
"              .        ",
"                       ",
"++++ +++ +++  + +++ +  ",
"+    +   + +  + + + +  ",
"++++ ++  +++. + +++ +  ",
"   + +   +  + + + + +  ",
"++++ +++ +  + + + + +++",
"                       ",
"                       ",
"                       ",
" @@@@@@@@@@@@@@@@@@@@  ",
"@++++++++++++++++++++@ ",
"@+##+$##+$##+$##+$##+@ ",
"@+##+$##+$##+$##+$##+@ ",
"@+++$$++$$++$$++$$++$@ ",
"@+$$$$$$$$$$$$$$$$$$$@ ",
" @+$##+$##+$##+$##+$@  ",
" @+$##+$##+$##+$##+$@  ",
"  @+++$$++$$++$$++$@   ",
"   @@@@@@@@@@@@@@@@    ",
"                       ",
"                       "};
